<?xml version="1.0" encoding="UTF-8"?>
<svg id="Layer_2" data-name="Layer 2" xmlns="http://www.w3.org/2000/svg" viewBox="0 0 277.89 181.7">
  <defs>
    <style>
      .cls-1, .cls-2 {
        fill: #fff;
      }

      .cls-2 {
        stroke: #8c6c5e;
        stroke-width: 2px;
      }

      .cls-3 {
        fill: rgba(255, 255, 255, 1);
      }
    </style>
  </defs>
  <g id="Layer_1-2" data-name="Layer 1">
    <g>
      <path class="cls-2" d="m96.13,2.12l.17,32.62c0,.73-.37,1.1-1.11,1.1l-26.85-.03c-.31,0-.57.12-.77.36-.92,1.09-1.26,2.5-1.03,4.21" vector-effect="non-scaling-stroke"/>
      <path class="cls-1" d="m96.13,2.12l.17,32.62c0,.73-.37,1.1-1.11,1.1l-26.85-.03c-.31,0-.57.12-.77.36-.92,1.09-1.26,2.5-1.03,4.21l-26.62.1c-.46,0-.69.23-.69.69l.02,68.39c0,.14-.12.26-.27.26H.26c-.14-.01-.26-.13-.26-.27V.84C0,.37.23.14.7.13l36.74-.13c.78,0,1.53.35,2.02.96l27.87,34.3c.24.29.66.33.95.1.03-.03.06-.06.09-.09L96.13,2.12Z"/>
      <path class="cls-1" d="m66.54,40.38c-.23-1.71.11-3.12,1.03-4.21.2-.24.46-.36.77-.36l26.85.03c.74,0,1.11-.37,1.11-1.1l-.17-32.62c.43-.91,1.42-1.38,2.99-1.4,11.76-.11,23.55-.08,35.36.08.85.01,1.53.7,1.53,1.54l-.05,32.75c0,.47.38.85.85.85l26.67-.03c1.24,0,1.86.62,1.85,1.86l-.05,13.31c0,.51.4.92.91.94,14.87.38,20.61,16.35,17.85,28.77-4.56,20.5-22.27,34.27-40.47,42.52-2.92,1.33-4.86,3.79-7.99,4.75-6.27,1.94-15.79,5.19-15.65,13.19.03,1.53.04,3,.05,4.42,0,.41-.11.79-.35,1.12-.37.51-.82.94-1.35,1.29-.31.21-.49.55-.49.91-.04,10.38-.16,22.67-9.8,29.13-15.49,10.4-31.52-3.65-33.1-19.27-.07-.71-.56-1.31-1.24-1.51-4.65-1.39-7.39-4.11-8.22-8.15-2.38-11.55,13.35-17.81,19.2-7.5,2.5,4.39,2.03,8.53-1.4,12.42-1.49,1.68-3.35,2.36-5.27,3.37-.32.17-.45.43-.38.78.85,4.83,2.4,8.86,4.64,12.1,6.26,9.09,18.45,11.4,26.61,3.35,5.83-5.76,6.25-16.53,5.97-24.86-.01-.4-.16-.74-.44-1.03-.78-.77-1.3-1.56-1.26-2.72.09-2.08.04-4.03-.14-5.84-.67-6.89-10.88-9.72-16.21-11.61-2.03-.73-3.71-2.02-5.04-3.89-.19-.26-.43-.47-.72-.62-17.17-8.84-37.04-22.25-39.99-42.32-1.25-8.54,1.48-16.7,7.97-22.21,2.05-1.73,4.63-2.32,7.44-2.19,3.67.17,7.43.22,11.27.14.65-.01,1.22-.4,1.48-1,1.07-2.51,2.04-5,2.9-7.48.2-.57.5-1.09.89-1.54.61-.7.94-.59.99.34.17,3.33.57,6.9,1.18,10.7.14.86.45,1.61.93,2.25.57.75,1.64.9,2.4.33.11-.08.21-.18.29-.28.69-.85,1.3-1.87,1.82-3.05,1.6-3.67,3.18-7.38,4.73-11.13.59-1.42,1.08-1.39,1.47.1l6.24,24.05c.24.91,1.17,1.45,2.07,1.22.17-.04.33-.11.48-.21.67-.43,1.12-1.24,1.35-2.43,2.09-11.09,4.18-22.88,6.27-35.37.15-.87.39-.9.74-.09.07.17.13.45.16.82,1.5,13.87,3.15,28.71,4.94,44.5.16,1.43.89,2.35,2.19,2.75.37.11.71.04,1-.22,1.02-.89,1.73-2.13,2.13-3.72,2.63-10.37,5.21-20.59,7.76-30.64.08-.29.2-.58.35-.85.1-.18.33-.24.51-.14.07.04.13.1.16.18l4.14,9.89c.21.51.71.84,1.26.85l25.95.21c.77,0,1.15.39,1.14,1.15l-.08,16.05c0,.97-.8,1.76-1.78,1.76l-26.76-.03c-.43,0-.77.35-.77.78l.04,31.55c0,1.71-.86,2.57-2.57,2.56h-35.13c-1.14-.02-2.06-.94-2.06-2.08v-32.06c0-.41-.34-.75-.75-.75l-26.92.03c-1.08,0-1.95-.87-1.95-1.95l.03-13.42c0-1.07-.53-1.58-1.6-1.51-7.63.46-12.09,10.5-12.25,16.9-.54,21.18,20.49,35.89,37.25,44.6,1.61.84,3.26,1.51,4.95,2,2.24.65,4.22,1.87,6.49,2.51,10.1,2.85,25.05,3.22,34.49-1.83,1.95-1.05,3.71-.55,5.66-1.36,18.68-7.84,39.74-24.56,40.5-46.69.25-7.31-3.19-16.42-10.5-19.33-2.1-.83-4.7-1.26-7.81-1.29-8.84-.06-16.77-.12-23.78-.19-.96-.01-1.63-.46-2-1.34l-4.39-10.37c-.1-.24-.28-.44-.51-.57-1.18-.67-1.99-.59-2.44.26-1.21,2.28-1.38,4.47-2.01,6.86-2.44,9.41-4.76,18.42-6.95,27.03-.55,2.15-.94,2.12-1.17-.09-1.73-16.78-3.57-32.98-5.54-48.61-.12-.94-.55-1.57-1.3-1.88-.75-.32-1.61.03-1.93.78-.04.1-.07.2-.09.31l-7.19,39.52c-.04.17-.19.28-.36.26-.22-.03-.35-.14-.39-.33-1.56-6.73-3.45-14.12-5.68-22.17-.36-1.3-1.04-2.28-2.04-2.95-.32-.21-.75-.14-.98.16-.95,1.23-1.75,2.58-2.39,4.06-1.78,4.1-3.48,8.16-5.11,12.17-.07.16-.26.24-.42.17-.06-.02-.1-.06-.14-.12-.26-.41-.4-.86-.43-1.34-.22-3.7-.69-7.38-1.41-11.04-.17-.85-.55-1.59-1.13-2.21-.61-.65-1.63-.7-2.29-.09-.17.16-.31.35-.39.57l-4.23,10.26c-.24.59-.81.97-1.45.97h-8.43c-.51.02-.93-.4-.94-.92,0,0,0,0,0-.01l-.03-12.96Zm17.27,106.59c0-4.53-3.67-8.2-8.2-8.2s-8.2,3.67-8.2,8.2c0,4.53,3.67,8.2,8.2,8.2h0c4.53,0,8.2-3.67,8.2-8.2h0Z"/>
      <path class="cls-1" d="m257.55,141.36c-.51-.37-1.23-.26-1.61.26-.03.04-.06.09-.08.13-.37.67-.24,1.3.38,1.87,1.11,1.01,2.32,2.02,3.61,3.01,2.28,1.75,3.38,5.31,1.21,7.44-2.41,2.37-5.27,2.26-8.59-.33-.37-.28-.55-.73-.49-1.19.06-.49.27-.88.62-1.19.94-.82,1.81-.75,2.61.2,1.03,1.22,2.08,1.5,3.17.83.69-.42.9-1.32.48-2-.06-.09-.12-.17-.19-.25-1.3-1.36-2.64-2.61-4.02-3.74-5.76-4.76.93-11.15,6.33-6.56.56.48.66,1.31.23,1.9l-.22.31c-.48.66-1.4.8-2.05.32,0,0,0,0,0,0l-1.38-1.01Z"/>
      <path class="cls-1" d="m269.59,141.72c-.33.57-.23,1.29.24,1.75,1.96,1.89,5.3,3.81,5.91,6.53.66,2.92-1.57,5.53-4.53,5.7-2.08.11-3.87-.67-5.37-2.35-.27-.31-.34-.65-.21-1.04.23-.66.68-1.15,1.33-1.48.38-.19.73-.13,1.04.17.98.95,3.02,2.62,4.3,1.28.62-.65.61-1.67,0-2.3-1.13-1.15-2.33-2.21-3.6-3.18-6.34-4.88.42-11.89,6.13-6.75.66.59.65,1.17-.03,1.74l-.31.25c-.73.61-1.47.62-2.2,0-1.29-1.07-2.18-1.18-2.69-.33Z"/>
      <path class="cls-1" d="m139.4,146.62c-.47-1.13-.8-1.09-.99.13l-1.13,7.49c-.13.85-.62,1.27-1.48,1.28h-.77c-.49,0-.89-.39-.89-.88,0-.04,0-.09,0-.13.66-4.37,1.44-8.97,2.33-13.81.09-.53.27-1.02.52-1.46.5-.86,1.61-1.16,2.47-.67.39.22.67.58.81,1l3.09,9.39c.13.37.33.42.6.15.19-.18.32-.39.4-.64.97-2.94,1.95-5.92,2.96-8.94.11-.35.34-.59.68-.74.79-.34,1.58-.36,2.35-.07.39.15.68.5.74.91l2.3,14.94c.09.53-.14.81-.67.85l-1.43.1c-.49.03-.78-.19-.85-.68l-1.35-8.93c-.03-.19-.21-.32-.4-.29-.06.01-.12.04-.17.08-.11.09-.19.21-.24.35-.89,2.65-1.8,5.37-2.72,8.14-.69,2.07-3.28,1.64-3.8-.39-.65-2.55-1.44-4.95-2.37-7.18Z"/>
      <path class="cls-1" d="m199.67,147.5c.51,5.36,6.37,6.67,9.93,3.52.77-.68,1.44-.59,2,.28l.3.47c.38.59.24,1.37-.33,1.78-4.41,3.19-11.31,3.11-14.02-2.21-2.47-4.84-.49-10.8,4.73-12.59,3.35-1.15,6.54-.5,9.56,1.93.26.22.42.53.43.87.04,1.54-1.6,2.04-2.74,1.33-.56-.35-1.12-.67-1.69-.97-3.98-2.12-8.58,1.28-8.17,5.59Z"/>
      <path class="cls-1" d="m248.66,146.98c0,4.82-3.91,8.73-8.73,8.73h0c-4.82,0-8.73-3.91-8.73-8.73s3.91-8.73,8.73-8.73,8.73,3.91,8.73,8.73h0Zm-8.46,5.71c3.03-.17,5.33-2.85,5.15-5.99-.18-3.13-2.78-5.53-5.81-5.35h0c-3.03.17-5.33,2.85-5.15,5.99.18,3.13,2.78,5.53,5.81,5.35,0,0,0,0,0,0Z"/>
      <path class="cls-1" d="m161.44,152.18l4.94.16c.35.01.63.31.62.66,0,0,0,0,0,0l-.06,1.64c-.01.34-.29.61-.63.62l-7.91.08c-.35,0-.64-.28-.65-.63,0,0,0,0,0-.01l-.02-15.5c0-.35.29-.64.64-.64,0,0,0,0,.01,0l7.97.17c.34,0,.62.28.63.62l.04,1.63c.01.35-.25.64-.6.66l-5.12.28c-.35.02-.62.32-.6.68,0,0,0,0,0,0l.09,1.44c.02.32.29.58.61.59l4.99.29c.34.02.61.31.6.65v1.52c-.02.34-.29.62-.63.63l-4.94.16c-.35.01-.62.29-.62.64l.02,3.02c0,.35.27.63.62.64Z"/>
      <path class="cls-1" d="m171.29,139.26c0-.35.28-.63.63-.63h0l4.82-.02c4.37-.02,7.92,3.56,7.94,7.98,0,0,0,0,0,0v.76c.01,4.42-3.52,8.01-7.88,8.03l-4.82.02c-.35,0-.63-.28-.63-.63l-.06-15.52Zm3.3,3.1v9.38c0,.31.26.57.57.57h1.49c2.61,0,4.72-2.06,4.72-4.6h0v-1.32c0-2.54-2.11-4.6-4.72-4.6h-1.49c-.31,0-.57.26-.57.57h0Z"/>
      <rect class="cls-1" x="188.99" y="138.56" width="3.26" height="16.86" rx=".96" ry=".96" transform="translate(-.26 .33) rotate(-.1)"/>
      <path class="cls-1" d="m220.51,149.16c-.16,1.57-.2,3.26-.12,5.08.03.68-.49,1.25-1.17,1.28l-.45.02c-1.04.05-1.56-.45-1.56-1.48l-.05-14.59c0-.48.38-.86.86-.87,2.58-.05,6.98-.46,8.39,2.27,1.41,2.73.81,4.98-1.8,6.77-.43.3-.56.87-.3,1.32l3.03,5.19c.51.89.26,1.31-.76,1.28l-.76-.03c-1.01-.03-1.72-.51-2.15-1.42l-2.33-4.96c-.45-.95-.72-.91-.83.14Zm-.07-6.75l-.1,2.06c-.02.41.29.76.7.78,0,0,0,0,.01,0h.33c1.46.08,2.68-.57,2.72-1.45l.02-.36c.05-.88-1.1-1.65-2.56-1.72,0,0-.01,0-.02,0h-.33c-.41-.03-.75.29-.77.69Z"/>
      <circle class="cls-1" cx="75.51" cy="146.96" r="6.55"/>
      <path class="cls-3" d="m133.83,161.76h143.82c.13,0,.24.11.24.24h0c0,.13-.11.24-.24.24h-143.82c-.13,0-.24-.11-.24-.24h0c0-.13.11-.24.24-.24Z"/>
      <path class="cls-3" d="m178.22,169.31c-.73.96-1.33,1.95-1.8,2.98-.46,1.01-.14,2.2.77,2.84,4.07,2.82,9.04-5.9,1.86-6.27-.37-.02-.41-.15-.11-.38.1-.07.21-.12.32-.14,5.85-.98,5.54,6.06,1.4,7.88-1.47.64-2.94.2-4.37-.25-1-.31-1.55-1.38-1.23-2.37h0s2.71-8.37,2.71-8.37c.02-.06.06-.09.13-.09h.32c.19-.02.27.07.22.26l-.46,1.82c-.11.41-.03.79.23,1.12.25.33.26.65,0,.97Z"/>
      <path class="cls-3" d="m195.41,175.58c-.35.19-.69.35-1.03.48-.75.29-.97.06-.64-.67.49-1.08.99-1.94,1.04-3.16.03-1.01.29-1.95.78-2.82.6-1.08.35-2.14.65-3.31.13-.56.46-.91.97-1.06.19-.05.38.06.43.24.03.1,0,.21-.05.3-.9,1.23-.96,2.33-.17,3.32.19.25.17.47-.08.67-1.39,1.13-1.9,2.78-1.54,4.97.05.31.25.57.53.69,5.16,2.32,7.59-6.33,2.49-6.12-.59.03-.64-.13-.17-.48.81-.59,1.59-.59,2.35,0,1.97,1.53,2.22,3.45.75,5.76-1.5,2.37-3.38,2.78-5.63,1.23-.22-.15-.45-.16-.68-.04Z"/>
      <path class="cls-3" d="m168.67,167.86l.88.61c.64.45.57.64-.21.59-.51-.04-.97.05-1.38.27-.31.17-.53.47-.61.81l-.89,3.98c-.09.36.05.75.35.98l.88.68c.78.61.68.87-.31.8-1.99-.14-2.24-2.16-1.66-3.65.47-1.19.66-2.38.58-3.57-.03-.39.06-.75.25-1.09l1.18-2.08c.27-.47.49-.46.68.05.08.23.07.45-.02.68-.14.34-.02.73.28.94Z"/>
      <path class="cls-3" d="m158.37,175.87c1.13-.02,1.99-.5,2.6-1.44.68-1.07.42-2.08,1.05-3.18.17-.28.18-.57.05-.86-.7-1.51-1.88-1.87-3.54-1.06-.16.07-.34,0-.41-.14,0-.02-.02-.04-.02-.06l-.07-.3c-.06-.26.09-.52.34-.58,0,0,0,0,0,0,2.19-.5,3.78.05,4.78,1.64.21.34.27.74.16,1.12l-1.28,4.27c-.11.38-.42.68-.81.77-2.14.5-5.08,1.62-5.62-1.82-.05-.33.03-.61.24-.86.53-.63,1.11-1.25,1.74-1.88.67-.67,1.6-.44,2.21.12.39.35.32.53-.2.54-1.08.03-1.9.34-2.46.93-.63.66-.6,1.71.07,2.33.31.3.73.46,1.16.46Z"/>
      <path class="cls-3" d="m186.67,172.84c-.74.56-.88,1.62-.32,2.35.35.46.91.7,1.48.66.96-.08,1.73-.53,2.31-1.36.84-1.18.33-1.92.8-3.05.19-.47.19-.91,0-1.34-.55-1.21-1.57-1.5-3.04-.86-.19.09-.41,0-.5-.19,0,0,0,0,0-.01l-.13-.31c-.08-.21-.02-.34.19-.39,1.65-.47,3.02-.29,4.11.56.43.33.65.76.68,1.3.09,1.75-.26,3.42-1.07,4.99-.21.43-.54.73-.98.91-1.91.78-5.62,1.26-5.08-2.09.28-1.73,1.65-2.99,3.17-2.9.1,0,.32.18.66.53.33.33.26.5-.2.51-.83.03-1.52.26-2.08.69Z"/>
      <path class="cls-3" d="m240.75,173.72l-2.75-1.87c-.33-.22-.55-.56-.63-.94-.21-1.05.22-1.83,1.29-2.34,1.45-.69,2.82-.55,4.1.43.14.11.18.31.08.46l-.17.26c-.09.15-.29.2-.44.11-.01,0-.03-.02-.04-.03-1.18-.97-2.28-1.09-3.29-.36-.48.35-.59,1.03-.24,1.51.07.09.15.18.25.25l2.22,1.59c.83.6,1.02,1.75.42,2.58-1.15,1.59-2.85,1.74-5.1.46-.27-.16-.45-.39-.53-.7-.13-.55.05-.69.55-.44l2.1,1.05c.35.17.7.19,1.07.06.56-.2,1-.56,1.32-1.07.21-.34.12-.79-.21-1.01Z"/>
      <path class="cls-3" d="m244.88,174.55c.03.73.61,1.32,1.34,1.36,1.49.09,2.62-.63,3.41-2.15.16-.31.18-.64.06-.97-.19-.5-.15-.99.11-1.46.59-1.08-.07-2.27-1.25-2.46-.68-.11-1.16.22-1.77.42-.21.08-.36,0-.44-.21l-.1-.29c-.06-.18.02-.39.2-.48,1.4-.7,4.64-.22,4.7,1.89.07,2.18-.34,4.01-1.23,5.49-.15.25-.38.4-.67.44-1.53.21-3.17,1.22-4.48-.04-.69-.65-1.02-1.37-1.01-2.15,0-.31.11-.59.32-.82.57-.61,1.22-1.19,1.96-1.74.38-.28.78-.34,1.19-.18.27.1.51.23.73.4.47.35.41.55-.18.58-1.99.11-2.96.9-2.89,2.37Z"/>
      <path class="cls-3" d="m256.5,175.6c.66-.2,1.03-.89.83-1.55-.07-.24-.21-.45-.41-.61-.59-.47-1.21-.87-1.88-1.18-1.23-.59-1.69-2.12-.68-3.18,1.33-1.41,3.75-1.11,5.08-.05.56.45.48.64-.23.57-.75-.07-1.5-.22-2.24-.45-.48-.15-.93-.08-1.36.21-.35.24-.51.56-.5.97,0,.41.18.74.53.97l2.53,1.69c.51.34.68,1.02.39,1.56-.4.75-.96,1.39-1.69,1.93-.27.2-.61.29-.94.25-1.2-.14-2.31-.59-3.33-1.35-.15-.11-.17-.24-.05-.38l.32-.39c.15-.17.31-.18.48-.03,1.06,1,2.11,1.34,3.15,1.02Z"/>
      <path class="cls-3" d="m266.77,171.29c.23-2-1.65-3.1-3.24-2.02-.26.18-.46.13-.6-.16l-.17-.35c-.09-.2-.01-.44.18-.53.03-.01.06-.02.09-.03,1.84-.38,3.28-.11,4.33.82.3.27.45.6.46,1,.05,1.85-.21,3.55-.78,5.12-.22.59-.64.94-1.25,1.05l-2.41.44c-.79.15-1.46-.07-2.02-.65-1.45-1.47-1.17-2.93.82-4.36.62-.45,1.28-.53,1.98-.23.69.29,1.39.42,2.11.38.3-.02.47-.18.5-.48Zm-.34,1.76c-.31-.93-1.63-1.32-2.95-.87,0,0,0,0,0,0-1.32.44-2.14,1.55-1.82,2.48,0,0,0,0,0,0,.31.93,1.63,1.32,2.95.87,0,0,0,0,0,0,1.32-.44,2.14-1.55,1.82-2.48,0,0,0,0,0,0Z"/>
      <path class="cls-3" d="m149.31,169.24c.9-.85,1.91-1.18,3.03-.97,1.33.24,2.21,1.51,1.97,2.84-.02.1-.04.2-.08.3l-1.4,4.42c-.11.35-.34.46-.68.32l-.26-.11c-.11-.05-.14-.13-.09-.24.82-1.87,1.23-3.69,1.22-5.47,0-.68-.55-1.24-1.23-1.24-.04,0-.08,0-.11,0-2.97.25-3.97,4.35-4.21,6.78-.02.17-.15.31-.32.32l-.3.03c-.13,0-.19-.05-.19-.18.02-1.49.31-2.9.86-4.23.54-1.31.14-2.19-1.2-2.65-1.06-.36-2.01.24-2.85,1.8-.38.7-.68,1.41-.89,2.13-.3.98-.67,1.97-1.12,2.98-.08.19-.22.25-.41.19l-.26-.09c-.07-.02-.1-.07-.08-.15l1.77-6.19c.16-.55.57-1,1.11-1.2,1.89-.71,3.5-.5,4.82.63.31.27.61.26.9-.02Z"/>
      <path class="cls-3" d="m225.06,171.55c.3-1.08-.33-2.2-1.41-2.5-.57-.16-1.19-.06-1.68.27-2.22,1.47-2.58,4.37-3.12,6.78-.03.15-.12.21-.27.18l-.31-.04c-.18-.03-.25-.13-.21-.3l1.55-6.46c.11-.43.46-.75.9-.81l3.84-.5c.24-.04.49.05.65.23,2.2,2.38.53,4.9-.11,7.47-.05.22-.26.35-.48.3-.04,0-.08-.03-.12-.05l-.27-.16c-.1-.05-.13-.14-.1-.25l1.14-4.16Z"/>
      <rect class="cls-3" x="225.2" y="171.86" width="7.98" height=".96" rx=".46" ry=".46" transform="translate(2.48 347.93) rotate(-74.7)"/>
      <rect class="cls-3" x="168.32" y="171.88" width="7.84" height=".98" rx=".43" ry=".43" transform="translate(-39.05 293.76) rotate(-74.9)"/>
      <path class="cls-3" d="m205.89,174.97c.36.81,1.32,1.18,2.13.81.09-.04.18-.09.27-.15,2.64-1.83,2.43-4.46,3.58-7.08.04-.11.17-.16.28-.11,0,0,0,0,0,0l.26.12c.24.1.32.27.23.52-.51,1.45-.93,2.91-1.26,4.39-.53,2.34-2.13,3.36-4.82,3.07-1.19-.13-2.09-1.15-2.07-2.35.03-1.76.45-3.56,1.24-5.4.1-.21.32-.33.55-.3l.36.07c.19.03.25.13.19.31-.68,2-1.9,3.97-.95,6.1Z"/>
    </g>
  </g>
</svg>